<?xml version="1.0" encoding="utf-8"?>
<!-- Generator: Adobe Illustrator 27.3.1, SVG Export Plug-In . SVG Version: 6.00 Build 0)  -->
<svg version="1.1" id="Layer_3" xmlns="http://www.w3.org/2000/svg" xmlns:xlink="http://www.w3.org/1999/xlink" x="0px" y="0px"
	 viewBox="0 0 5803.5 1379.3" style="enable-background:new 0 0 5803.5 1379.3;" xml:space="preserve">
<style type="text/css">
	.st0{fill:#183287;}
	.st1{fill:url(#SVGID_1_);}
	.st2{fill:url(#SVGID_00000142150572128235694040000016508990568519824789_);}
	.st3{fill:url(#SVGID_00000165228459734146019000000010971493399589519807_);}
</style>
<path class="st0" d="M3727,630.2c90,0,163-73,163-163v-51.6c0-90-73-163-163-163h-68.5h-114.4v377.7h132.6H3727z M3635.2,343.6h78.5
	c47.1,0,85.2,38.2,85.2,85.2v25c0,47.1-38.2,85.2-85.2,85.2h-78.5V343.6z"/>
<path class="st0" d="M4409.8,630.2c90,0,163-73,163-163v-51.6c0-90-73-163-163-163h-68.5h-114.4v377.7h132.6H4409.8z M4318,343.6
	h78.5c47.1,0,85.2,38.2,85.2,85.2v25c0,47.1-38.2,85.2-85.2,85.2H4318V343.6z"/>
<path class="st0" d="M4855.9,254.4l-0.8-1.9h-96.6l-0.8,1.9l-150,375.8h98.2l23.4-58.7h155l23.4,58.7h98.1L4855.9,254.4z
	 M4764.1,484.4l42.8-107.1l42.8,107.1H4764.1z"/>
<path class="st0" d="M5434.8,571.5h155l23.4,58.7h98.1l-150-375.8l-0.8-1.9H5464l-0.8,1.9l-150,375.8h98.2L5434.8,571.5z
	 M5512.3,377.3l42.8,107.1h-85.5L5512.3,377.3z"/>
<path class="st0" d="M5645.9,910.3h-9.8h-99.2v74.9h85.4v26c-19.8,22.1-48.5,35.9-80.5,35.9c-59.7,0-108.1-48.4-108.1-108.1
	s48.4-108.1,108.1-108.1c35.3,0,66.7,16.9,86.4,43.1l73.4-54c-36.3-48.7-94.4-80.3-159.8-80.3c-110,0-199.2,89.2-199.2,199.2
	c0,110,89.2,199.2,199.2,199.2c34.7,0,66.7-10.9,94.3-28.9v16.6h75.3v-101.7v-114h-37.6H5645.9z"/>
<rect x="4714.3" y="750.3" class="st0" width="91.1" height="377.7"/>
<polygon class="st0" points="4418.6,750.3 4302,750.3 4302,841.4 4418.6,841.4 4418.6,1128 4509.8,1128 4509.8,841.4 4628.6,841.4 
	4628.6,750.3 4509.8,750.3 "/>
<polygon class="st0" points="5122.5,630.2 5213.7,630.2 5213.7,343.6 5332.5,343.6 5332.5,252.5 5213.7,252.5 5122.5,252.5 
	5005.9,252.5 5005.9,343.6 5122.5,343.6 "/>
<polygon class="st0" points="4127.7,750.3 4036.5,750.3 4036.5,1036.9 4036.5,1128 4127.7,1128 4307.2,1128 4307.2,1036.9 
	4127.7,1036.9 "/>
<polygon class="st0" points="2566.6,630.2 2566.6,539.1 2387,539.1 2387,252.5 2295.9,252.5 2295.9,539.1 2295.9,630.2 2387,630.2 
	"/>
<path class="st0" d="M3842.8,978c0,32.5-26.4,58.9-58.9,58.9h-38.1c-32.5,0-58.9-26.4-58.9-58.9V750.3h-91.1v229
	c0,82.1,66.6,148.7,148.7,148.7h40.8c82.1,0,148.7-66.6,148.7-148.7v-229h-91.1V978z"/>
<path class="st0" d="M3299.8,630.2c82.1,0,148.7-66.6,148.7-148.7v-229h-91.1v227.7c0,32.5-26.4,58.9-58.9,58.9h-38.1
	c-32.5,0-58.9-26.4-58.9-58.9V252.5h-91.1v229c0,82.1,66.6,148.7,148.7,148.7H3299.8z"/>
<polygon class="st0" points="3019.1,965 2857.1,767.1 2843.4,750.3 2766,750.3 2766,1128 2857.1,1128 2857.1,911.4 3019.1,1109.3 
	3034.4,1128 3110.2,1128 3110.2,750.3 3019.1,750.3 "/>
<polygon class="st0" points="5168.3,965 5006.3,767.1 4992.5,750.3 4915.1,750.3 4915.1,1128 5006.3,1128 5006.3,911.4 
	5168.3,1109.3 5183.6,1128 5259.4,1128 5259.4,750.3 5168.3,750.3 "/>
<path class="st0" d="M2037.2,831.1c40.3,0,75.4,22,93.9,54.6l85.2-33.7c-32.3-66.4-100.4-112.1-179.2-112.1
	c-110,0-199.2,89.2-199.2,199.2c0,110,89.2,199.2,199.2,199.2c78.3,0,146-45.2,178.6-110.9l-85.3-33.7c-18.8,32-53.5,53.4-93.2,53.4
	c-59.7,0-108.1-48.4-108.1-108.1S1977.5,831.1,2037.2,831.1z"/>
<path class="st0" d="M2037.2,242.2c-110,0-199.2,89.2-199.2,199.2c0,110,89.2,199.2,199.2,199.2c78.3,0,146-45.2,178.6-110.9
	l-85.3-33.7c-18.8,32-53.5,53.4-93.2,53.4c-59.7,0-108.1-48.4-108.1-108.1c0-59.7,48.4-108.1,108.1-108.1c40.3,0,75.4,22,93.9,54.6
	l85.2-33.7C2184.1,287.9,2116,242.2,2037.2,242.2z"/>
<path class="st0" d="M2478.7,739.9c-110,0-199.2,89.2-199.2,199.2c0,110,89.2,199.2,199.2,199.2s199.2-89.2,199.2-199.2
	C2677.9,829.1,2588.7,739.9,2478.7,739.9z M2478.7,1047.2c-59.7,0-108.1-48.4-108.1-108.1s48.4-108.1,108.1-108.1
	s108.1,48.4,108.1,108.1S2538.4,1047.2,2478.7,1047.2z"/>
<path class="st0" d="M3027.2,441.4c0-110-89.2-199.2-199.2-199.2c-110,0-199.2,89.2-199.2,199.2c0,110,89.2,199.2,199.2,199.2
	C2938,640.6,3027.2,551.4,3027.2,441.4z M2719.9,441.4c0-59.7,48.4-108.1,108.1-108.1s108.1,48.4,108.1,108.1
	c0,59.7-48.4,108.1-108.1,108.1S2719.9,501,2719.9,441.4z"/>
<path class="st0" d="M3409.7,901.8l-74-17.6c-23-5.9-34.5-16.6-34.5-32.1c0-10,4.3-18,12.9-24.1c8.6-6,20.4-9.1,35.2-9.1
	c34.1,0,53.2,14.5,57.3,43.5h91.8c-2-37.6-15.9-66.7-41.6-87.3c-25.7-20.5-61.3-30.8-107-30.8c-47.7,0-83.5,10.9-107.5,32.6
	c-24,21.8-36,49.6-36,83.4c0,55.3,31.1,90.3,93.3,105.2l71,17.1c15.5,4.1,26.6,8.9,33.2,14.2c6.6,5.4,9.9,12.9,9.9,22.5
	c0,24.5-18.4,36.8-55.3,36.8c-42.3,0-64.6-17.6-66.9-52.8h-93.8c2,41.8,16.9,74,44.6,96.6c27.7,22.6,65.7,33.9,114.1,33.9
	c47.7,0,85.2-10.7,112.6-32.1c27.4-21.4,41.1-51.1,41.1-89.1C3510.1,955,3476.6,918.1,3409.7,901.8z"/>
<g>
	<linearGradient id="SVGID_1_" gradientUnits="userSpaceOnUse" x1="112.64" y1="800.9841" x2="1512.3199" y2="800.9841">
		<stop  offset="0" style="stop-color:#1F52B5"/>
		<stop  offset="1" style="stop-color:#247AC7"/>
	</linearGradient>
	<path class="st1" d="M1406.1,1135.1c-24.8,0-46.7,11.8-60.6,30.2H974.2v-81.3v-91.4v-45.3v-22.5v-72.8v-98.7V637.8V315.1h-91.4
		v462.7v91.6v91.5v31.6v91.4v81.3v91.4h91.4h371.3c13.9,18.3,35.9,30.2,60.6,30.2c41.9,0,75.9-34,75.9-75.9
		C1482,1169,1448,1135.1,1406.1,1135.1z"/>
	
		<linearGradient id="SVGID_00000077307635121793091030000002199044803976790410_" gradientUnits="userSpaceOnUse" x1="112.64" y1="588.1716" x2="1512.3199" y2="588.1716">
		<stop  offset="0" style="stop-color:#1F52B5"/>
		<stop  offset="1" style="stop-color:#247AC7"/>
	</linearGradient>
	<path style="fill:url(#SVGID_00000077307635121793091030000002199044803976790410_);" d="M1204.2,480.7c2.1,15.1,3.1,30.5,3.1,46.1
		c0,15.7-1,31.1-3.1,46.2c11.9-2.1,24.1-3.2,36.6-3.2c19,0,37.5,2.5,55.1,7.3c90,24.2,156.2,106.4,156.2,204
		c0,116.7-94.6,211.3-211.3,211.3H1148v-21.4v-114c-0.3-0.3-0.5-0.6-0.7-0.9c0.2-0.2,0.5-0.4,0.7-0.6V719.6v-10.9h-2.6h-88.8v102.2
		v73.9v31.5v76.2v28.8v62.6h91.4h92.7c166.9,0,302.7-135.8,302.7-302.7c0-147.8-106.5-271.3-246.9-297.5
		c-21.7-219.3-207.3-391.3-432.3-391.3c-184.9,0-343.2,116.2-405.8,279.3c-193,3.9-348.7,162.2-348.7,356
		c0,196.4,159.8,356.1,356.1,356.1h66.1h91.4v-36.8v-54.6v-52v-52.3v-88.3V771v-62.3h-50h-41.4v97.7V888v96.2v8.3h-66.1
		c-146.2,0-264.7-118.5-264.7-264.7c0-135.5,101.8-247.2,233.1-262.8c10.4-1.2,20.9-1.9,31.6-1.9c20.7,0,40.8,2.4,60.1,6.9
		c5.1-30.7,14.3-60.1,27.1-87.5c54.5-117.3,173.3-198.6,311.2-198.6C1038,183.8,1181.6,313.1,1204.2,480.7z"/>
	
		<linearGradient id="SVGID_00000080168831975980550260000008406949947054316176_" gradientUnits="userSpaceOnUse" x1="112.64" y1="901.5681" x2="1512.3199" y2="901.5681">
		<stop  offset="0" style="stop-color:#1F52B5"/>
		<stop  offset="1" style="stop-color:#247AC7"/>
	</linearGradient>
	<path style="fill:url(#SVGID_00000080168831975980550260000008406949947054316176_);" d="M708,516.2v104.7V724v108.3v2.4v97.5v56.4
		v3.9v91.4v81.3H228.7c-13.9-18.4-35.9-30.2-60.6-30.2c-41.9,0-75.9,34-75.9,75.9c0,41.9,34,75.9,75.9,75.9
		c24.8,0,46.7-11.9,60.6-30.2H708h91.4v-91.4v-81.3v-91.4v-36v-92.7v-11.4V770V603.3v-87h-47.3H708z"/>
</g>
</svg>
